# xmcd
#
# Track frame offsets: 
#        150
#        15889
#        31287
#        47092
#        61845
#        76016
#        91680
#        106858
#        122244
#        140314
#        157158
#        171802
#        187895
#        201696
#        218173
#
# Disc length: 3110 seconds
#
# Revision: 2
# Processed by: cddbd v1.5.2PL0 Copyright (c) Steve Scherf et al.
# Submitted via: ExactAudioCopy v1.3
#
DISCID=bd0c240f
DTITLE=Franco Levine - Por Ti
DYEAR=2008
DGENRE=Country
TTITLE0=Por Ti
TTITLE1=Larga de Bobeira
TTITLE2=Eu Tô Aqui
TTITLE3=Acabou
TTITLE4=Difícil
TTITLE5=Por Toda Vida
TTITLE6=Eternos Namorados
TTITLE7=Reconquistar Você
TTITLE8=Hoje Eu Sei (Part. Rick and Renner)
TTITLE9=Lembrança de Um Beijo
TTITLE10=Festa no Meu Coração
TTITLE11=Sem Você Meu Mundo Vai Ficar Melhor
TTITLE12=Na Hora da Partida
TTITLE13=Vou Ganhar Você
TTITLE14=Larga de Bobeira (remix)
EXTD=
EXTT0=
EXTT1=
EXTT2=
EXTT3=
EXTT4=
EXTT5=
EXTT6=
EXTT7=
EXTT8=
EXTT9=
EXTT10=
EXTT11=
EXTT12=
EXTT13=
EXTT14=
PLAYORDER=
